<svg xmlns="http://www.w3.org/2000/svg" width="18" height="20"><path d="M15 14.124a2.9 2.9 0 0 0-1.96.773l-7.13-4.166a3.293 3.293 0 0 0 .09-.7 3.3 3.3 0 0 0-.09-.7L12.96 5.2A2.99 2.99 0 0 0 18 3a3 3 0 1 0-6 0 3.294 3.294 0 0 0 .09.7L5.04 7.831a3.011 3.011 0 1 0 0 4.4l7.12 4.169a2.841 2.841 0 0 0-.08.652A2.92 2.92 0 1 0 15 14.124ZM15 2a1 1 0 1 1-1 1 1.005 1.005 0 0 1 1-1ZM3 11.032a1 1 0 1 1 1-1 1 1 0 0 1-1 1Zm12 7.046a1 1 0 1 1 1-1 1.005 1.005 0 0 1-1 1Z" style="fill:#0f8040;fill-rule:evenodd"/></svg>