<svg xmlns="http://www.w3.org/2000/svg" width="18" height="20" viewBox="0 0 18 20">
  <defs>
    <style>
      .cls-1 {
        fill: #fff;
        fill-rule: evenodd;
      }
    </style>
  </defs>
  <path class="cls-1" d="M15,14.124a2.906,2.906,0,0,0-1.96.773L5.91,10.732a3.3,3.3,0,0,0,.09-0.7,3.3,3.3,0,0,0-.09-0.7L12.96,5.2A2.991,2.991,0,0,0,18,3a3,3,0,1,0-6,0,3.3,3.3,0,0,0,.09.7L5.04,7.831a3.011,3.011,0,1,0,0,4.4L12.16,16.4a2.842,2.842,0,0,0-.08.652A2.92,2.92,0,1,0,15,14.124ZM15,2a1,1,0,1,1-1,1A1,1,0,0,1,15,2ZM3,11.033a1,1,0,1,1,1-1A1,1,0,0,1,3,11.033Zm12,7.046a1,1,0,1,1,1-1A1,1,0,0,1,15,18.078Z"/>
</svg>
