<svg xmlns="http://www.w3.org/2000/svg" width="24" height="24" viewBox="0 0 24 24">
  <defs>
    <style>
      .cls-1 {
        fill: #6b6b6b;
        fill-rule: evenodd;
      }
    </style>
  </defs>
  <path class="cls-1" d="M13.507,10.537V10.508c-0.005.009-.014,0.019-0.019,0.028h0.019ZM12.215,0A12,12,0,1,0,24.3,12,12.043,12.043,0,0,0,12.215,0ZM9.021,17.913H6.134V9.285H9.021v8.627Zm-1.444-9.8H7.559A1.5,1.5,0,1,1,7.6,5.127,1.5,1.5,0,1,1,7.577,8.108Zm11.858,9.8H16.547V13.3c0-1.159-.417-1.951-1.463-1.951A1.579,1.579,0,0,0,13.6,12.4a1.928,1.928,0,0,0-.1.7v4.818H10.618s0.039-7.818,0-8.627h2.889v1.223a2.871,2.871,0,0,1,2.6-1.426c1.9,0,3.325,1.233,3.325,3.882v4.948Z"/>
</svg>
