<svg xmlns="http://www.w3.org/2000/svg" width="24" height="24"><path d="M22.633 24H1.366A1.367 1.367 0 0 1 0 22.632V1.365A1.366 1.366 0 0 1 1.366 0h21.267A1.366 1.366 0 0 1 24 1.365v21.267A1.367 1.367 0 0 1 22.633 24ZM18.84 8.758A3.2 3.2 0 0 0 20.16 7.2a6.834 6.834 0 0 1-1.68.479 3.39 3.39 0 0 0 1.32-1.8 8.067 8.067 0 0 1-2.04.72c-1.8-2.279-6.36-.479-5.52 2.88a9.509 9.509 0 0 1-6.6-3.36 3.548 3.548 0 0 0 .96 4.32 2.41 2.41 0 0 1-1.32-.361 3.27 3.27 0 0 0 2.52 3.241 4.865 4.865 0 0 1-1.32 0 3.24 3.24 0 0 0 3 2.279 6.368 6.368 0 0 1-4.68 1.32 8.732 8.732 0 0 0 5.16 1.44c5.28-.24 8.76-4.08 8.88-9.6Z" style="fill:#fff;fill-rule:evenodd"/></svg>