<svg xmlns="http://www.w3.org/2000/svg" width="24" height="24" viewBox="0 0 24 24">
  <defs>
    <style>
      .cls-1 {
        fill: #fff;
        fill-rule: evenodd;
      }
    </style>
  </defs>
  <path class="cls-1" d="M22.674,0H1.323A1.325,1.325,0,0,0,0,1.324V22.672A1.325,1.325,0,0,0,1.323,24H12.818V14.7H9.692V11.082h3.126V8.411c0-3.1,1.893-4.789,4.658-4.789a26.17,26.17,0,0,1,2.794.142V7H18.352c-1.5,0-1.793.716-1.793,1.763V11.08h3.587L19.678,14.7H16.559V24h6.115A1.327,1.327,0,0,0,24,22.672V1.321A1.325,1.325,0,0,0,22.674,0h0Z"/>
</svg>
