<svg xmlns="http://www.w3.org/2000/svg" width="24" height="24" viewBox="0 0 24 24">
  <defs>
    <style>
      .cls-1 {
        fill: #fff;
        fill-rule: evenodd;
      }
    </style>
  </defs>
  <path class="cls-1" d="M22.633,24H1.366A1.367,1.367,0,0,1,0,22.632V1.365A1.366,1.366,0,0,1,1.366,0H22.633A1.366,1.366,0,0,1,24,1.365V22.632A1.367,1.367,0,0,1,22.633,24ZM7.312,9.248H3.7V20.092H7.312V9.248ZM6.984,7.24A1.778,1.778,0,0,0,7.546,5.9a1.846,1.846,0,0,0-.562-1.343,2,2,0,0,0-1.453-.532,2.08,2.08,0,0,0-1.477.532A1.757,1.757,0,0,0,3.484,5.9,1.788,1.788,0,0,0,4.039,7.24a1.987,1.987,0,0,0,1.445.539H5.5A2.056,2.056,0,0,0,6.984,7.24h0ZM20.3,20.092v-6.22a5.189,5.189,0,0,0-1.141-3.641A3.911,3.911,0,0,0,16.141,9a3.625,3.625,0,0,0-3.235,1.782V9.248H9.3q0.047,1.032,0,10.844h3.61V14.03a2.568,2.568,0,0,1,.11-0.874,2.4,2.4,0,0,1,.7-0.93,1.771,1.771,0,0,1,1.156-.383q1.813,0,1.812,2.453v5.8H20.3Z"/>
</svg>
