<svg xmlns="http://www.w3.org/2000/svg" width="24" height="24"><path d="M11.854 0a12 12 0 1 0 12.084 12A12.043 12.043 0 0 0 11.854 0Zm5.961 10.108c.005.123.008.247.008.371A8.133 8.133 0 0 1 9.6 18.641a8.216 8.216 0 0 1-4.427-1.289 5.882 5.882 0 0 0 4.277-1.188 2.89 2.89 0 0 1-2.7-1.992 2.909 2.909 0 0 0 1.3-.05 2.875 2.875 0 0 1-2.308-2.812v-.036a2.89 2.89 0 0 0 1.308.359A2.859 2.859 0 0 1 6.158 7.8a8.218 8.218 0 0 0 5.953 3 2.848 2.848 0 0 1-.075-.654 2.894 2.894 0 0 1 5-1.962 5.829 5.829 0 0 0 1.834-.7 2.887 2.887 0 0 1-1.27 1.591 5.808 5.808 0 0 0 1.659-.451 5.841 5.841 0 0 1-1.444 1.484Z" style="fill:#6b6b6b;fill-rule:evenodd"/></svg>