<svg xmlns="http://www.w3.org/2000/svg" width="20" height="20" viewBox="0 0 20 20">
  <defs>
    <style>
      .cls-1 {
        fill: #b2b2b2;
        fill-rule: evenodd;
      }
    </style>
  </defs>
  <path class="cls-1" d="M6,16a2,2,0,1,0,2,2A2,2,0,0,0,6,16ZM0,0V2H2L5.6,9.59,4.25,12.04A1.934,1.934,0,0,0,4,13a2.006,2.006,0,0,0,2,2H18V13H6.42a0.248,0.248,0,0,1-.25-0.25l0.03-.12L7.1,11h7.45A1.991,1.991,0,0,0,16.3,9.97l3.58-6.49A0.977,0.977,0,0,0,20,3a1,1,0,0,0-1-1H4.21L3.27,0H0ZM16,16a2,2,0,1,0,2,2A2,2,0,0,0,16,16Z"/>
</svg>
